<?xml version="1.0" encoding="UTF-8"?>
<svg width="200" height="200" viewBox="0 0 200 200" fill="none" xmlns="http://www.w3.org/2000/svg">
  <path d="M100 180c44.183 0 80-35.817 80-80s-35.817-80-80-80-80 35.817-80 80 35.817 80 80 80z" fill="#E3F5FF"/>
  <path d="M65 90c0-19.33 15.67-35 35-35s35 15.67 35 35v40H65V90z" fill="#4CAF50"/>
  <path d="M75 85c0-13.807 11.193-25 25-25s25 11.193 25 25v35H75V85z" fill="#81C784"/>
  <path d="M85 95c0-8.284 6.716-15 15-15 8.284 0 15 6.716 15 15v15H85V95z" fill="#C8E6C9"/>
  <circle cx="100" cy="70" r="5" fill="#2E7D32"/>
  <path d="M90 110h20v10H90z" fill="#2E7D32"/>
</svg> 