
<svg width="133" height="24" viewBox="0 0 133 24" fill="none" xmlns="http://www.w3.org/2000/svg">
<path d="M34.144 19.7419V3.45161H37.7548L43.9999 13.7742V3.45161H47.1935V19.7419H43.5516L37.3387 9.38709V19.7419H34.144Z" fill="black"/>
<path d="M59.0644 14.1332C59.0644 15.691 58.5 16.9606 57.371 17.9419C56.2657 18.9232 54.851 19.4139 53.1371 19.4139C51.4232 19.4139 50.0085 18.9232 48.8931 17.9419C47.8012 16.9371 47.2552 15.6674 47.2552 14.1332C47.2552 12.5283 47.8196 11.2587 48.9484 10.3245C50.0772 9.36742 51.4685 8.88387 53.1224 8.88387C54.7763 8.88387 56.1811 9.36742 57.3364 10.3245C58.4551 11.2587 59.0644 12.5283 59.0644 14.1332ZM49.8781 14.1332C49.8781 15.1261 50.1818 15.9326 50.7892 16.5526C51.4202 17.1726 52.2131 17.4826 53.1679 17.4826C54.1228 17.4826 54.9077 17.1726 55.5226 16.5526C56.161 15.9326 56.4802 15.1261 56.4802 14.1332C56.4802 13.1403 56.16 12.3467 55.5197 11.7526C54.9028 11.1584 54.1119 10.8613 53.1469 10.8613C52.1819 10.8613 51.381 11.1584 50.7441 11.7526C50.1335 12.3467 49.8781 13.1403 49.8781 14.1332Z" fill="black"/>
<path d="M67.3998 8.88387C68.8003 8.88387 69.9471 9.37742 70.8404 10.3645C71.7336 11.3283 72.1803 12.6104 72.1803 14.2104C72.1803 15.7839 71.7229 17.0545 70.808 18.0222C69.893 18.99 68.7505 19.4739 67.3806 19.4739C66.0106 19.4739 64.9472 18.9716 64.0902 17.9671H63.9759L64.0882 19.7419H61.6044V3.99274H64.1932V10.2645H64.3075C65.1149 9.34406 66.1207 8.88387 67.3998 8.88387ZM63.8617 14.2506C63.8617 15.171 64.1019 15.9326 64.5825 16.5354C65.0878 17.161 65.7371 17.4739 66.5303 17.4739C67.3949 17.4739 68.0562 17.156 68.5145 16.5203C68.9718 15.8603 69.2005 14.9997 69.2005 13.9384C69.2005 12.9213 68.9718 12.1061 68.5145 11.4926C68.0799 10.879 67.4229 10.5722 66.5442 10.5722C65.6656 10.5722 64.9592 10.8829 64.4251 11.5043C63.9162 12.1256 63.6617 13.0317 63.6617 14.2506H63.8617Z" fill="black"/>
<path d="M78.9937 9.18387V9.21547C79.2784 9.21547 79.5197 9.21743 79.7176 9.22135C79.9156 9.22291 80.1085 9.2261 80.2967 9.2309C80.4849 9.23569 80.6799 9.24321 80.8817 9.25282C81.0836 9.26242 81.3094 9.27722 81.5594 9.29722C82.4049 9.36403 83.1029 9.59264 83.6535 9.98306C84.2277 10.3735 84.5148 10.9593 84.5148 11.7407C84.5148 12.3962 84.2988 12.9217 83.8669 13.3172C83.435 13.7126 82.8642 13.9604 82.1545 14.0604V14.1204C83.027 14.1851 83.6972 14.4437 84.1651 14.8961C84.6331 15.3251 84.867 15.8861 84.867 16.5791C84.867 17.8187 84.3171 18.6654 83.2172 19.1193C82.7333 19.3176 82.1116 19.4159 81.352 19.4142V19.4158C81.1107 19.4158 80.8661 19.4089 80.6182 19.395C80.3936 19.3831 80.1779 19.3664 79.9712 19.345C79.7644 19.3236 79.5663 19.2999 79.3769 19.2738C79.1874 19.2476 79.0046 19.2182 78.8283 19.1855V9.18387H78.9937ZM81.1436 13.2571C81.7324 13.2447 82.1638 13.1064 82.4375 12.8423C82.7113 12.5783 82.8482 12.2251 82.8482 11.7828C82.8482 11.3939 82.7047 11.0794 82.4179 10.8394C82.131 10.5994 81.7043 10.4829 81.1375 10.4899C80.9797 10.4933 80.8357 10.4983 80.7054 10.5049C80.5751 10.5116 80.4562 10.5182 80.3487 10.525V13.2342C80.4419 13.2391 80.5481 13.2441 80.6674 13.2491C80.7867 13.254 80.9535 13.2574 81.1688 13.2591L81.1436 13.2571ZM81.1381 18.1157C81.4747 18.1157 81.7756 18.0857 82.0409 18.0257C82.3061 17.9657 82.5319 17.874 82.7184 17.7506C82.9049 17.6273 83.0473 17.4723 83.1457 17.2856C83.2441 17.0989 83.2933 16.8805 83.2933 16.6305C83.2933 15.9857 82.9848 15.54 82.3679 15.2934C82.1654 15.2151 81.9377 15.1651 81.6848 15.1434C81.4319 15.1217 81.1608 15.1109 80.8717 15.1109C80.7631 15.1109 80.6546 15.1126 80.5461 15.1159C80.4376 15.1192 80.3427 15.1242 80.2614 15.1309V18.045C80.3427 18.0584 80.4435 18.0717 80.5637 18.0851C80.684 18.0984 80.828 18.1057 80.9957 18.1074C81.0499 18.1121 81.0946 18.1148 81.1298 18.1157H81.1381Z" fill="black"/>
<path d="M95.8422 14.1332C95.8422 15.691 95.2778 16.9606 94.1488 17.9419C93.0435 18.9232 91.6288 19.4139 89.9149 19.4139C88.201 19.4139 86.7863 18.9232 85.6709 17.9419C84.579 16.9371 84.033 15.6674 84.033 14.1332C84.033 12.5283 84.5974 11.2587 85.7262 10.3245C86.855 9.36742 88.2463 8.88387 89.9002 8.88387C91.5541 8.88387 92.9589 9.36742 94.1142 10.3245C95.2329 11.2587 95.8422 12.5283 95.8422 14.1332ZM86.6559 14.1332C86.6559 15.1261 86.9596 15.9326 87.567 16.5526C88.198 17.1726 88.9909 17.4826 89.9457 17.4826C90.9006 17.4826 91.6855 17.1726 92.3004 16.5526C92.9388 15.9326 93.2581 15.1261 93.2581 14.1332C93.2581 13.1403 92.9378 12.3467 92.2975 11.7526C91.6807 11.1584 90.8897 10.8613 89.9247 10.8613C88.9597 10.8613 88.1588 11.1584 87.5219 11.7526C86.9113 12.3467 86.6559 13.1403 86.6559 14.1332Z" fill="black"/>
<path d="M104.757 19.7419H102.228V13.7419C102.228 12.8614 102.068 12.2197 101.748 11.8168C101.428 11.414 100.974 11.2126 100.385 11.2126C99.6174 11.2126 99.061 11.4688 98.716 11.9812C98.3711 12.4936 98.1986 13.2793 98.1986 14.3383V19.7419H95.6696V9.11613H97.9825L98.1238 10.6987H98.2143C98.5226 10.1664 98.9478 9.75484 99.4899 9.46387C100.032 9.17291 100.651 9.02742 101.346 9.02742C102.982 9.02742 104.104 9.60387 104.711 10.7568H104.844C105.176 10.1913 105.618 9.76613 106.17 9.48097C106.721 9.1958 107.352 9.05322 108.064 9.05322C109.206 9.05322 110.053 9.35226 110.605 9.95032C111.157 10.5254 111.433 11.4485 111.433 12.7198V19.7419H108.918V13.7419C108.918 12.8614 108.764 12.2197 108.456 11.8168C108.148 11.414 107.699 11.2126 107.107 11.2126C106.356 11.2126 105.798 11.4539 105.432 11.9367C105.066 12.4195 104.882 13.1303 104.882 14.0693V19.7419H104.757Z" fill="black"/>
<path d="M119.316 17.6725C119.316 18.5841 118.991 19.2826 118.341 19.7678C117.691 20.2529 116.76 20.4954 115.55 20.4954C114.542 20.4954 113.69 20.3299 112.994 19.9988V17.8935C113.884 18.3386 114.742 18.5611 115.566 18.5611C116.425 18.5611 116.854 18.2922 116.854 17.7544C116.854 17.5598 116.794 17.4002 116.675 17.2754C116.556 17.1506 116.348 17.0187 116.052 16.8797C115.756 16.7407 115.374 16.5846 114.906 16.4115C114.042 16.12 113.422 15.7773 113.047 15.3833C112.671 14.9894 112.484 14.4823 112.484 13.8622C112.484 13.1022 112.785 12.5081 113.388 12.0799C113.991 11.6516 114.813 11.4375 115.855 11.4375C116.812 11.4375 117.698 11.6198 118.513 11.9844L117.765 13.8446C117.415 13.6838 117.076 13.5544 116.748 13.4564C116.42 13.3585 116.084 13.3095 115.742 13.3095C115.06 13.3095 114.72 13.5169 114.72 13.9319C114.72 14.1802 114.845 14.3815 115.096 14.5357C115.346 14.6899 115.817 14.8902 116.508 15.1367C117.121 15.355 117.591 15.5657 117.919 15.7686C118.247 15.9716 118.489 16.2164 118.645 16.5031C118.801 16.7897 118.879 17.151 118.879 17.5872L119.316 17.6725Z" fill="black"/>
<path d="M127.029 8.88387C128.429 8.88387 129.576 9.37742 130.469 10.3645C131.362 11.3283 131.809 12.6104 131.809 14.2104C131.809 15.7839 131.351 17.0545 130.437 18.0222C129.522 18.99 128.379 19.4739 127.009 19.4739C125.639 19.4739 124.576 18.9716 123.719 17.9671H123.605L123.717 19.7419H121.233V3.99274H123.822V10.2645H123.936C124.744 9.34406 125.75 8.88387 127.029 8.88387ZM123.491 14.2506C123.491 15.171 123.731 15.9326 124.211 16.5354C124.717 17.161 125.366 17.4739 126.159 17.4739C127.023 17.4739 127.685 17.156 128.143 16.5203C128.6 15.8603 128.829 14.9997 128.829 13.9384C128.829 12.9213 128.6 12.1061 128.143 11.4926C127.708 10.879 127.051 10.5722 126.173 10.5722C125.294 10.5722 124.588 10.8829 124.054 11.5043C123.545 12.1256 123.291 13.0317 123.291 14.2506H123.491Z" fill="black"/>
<path fill-rule="evenodd" clip-rule="evenodd" d="M12 24C18.6274 24 24 18.6274 24 12C24 5.37258 18.6274 0 12 0C5.37258 0 0 5.37258 0 12C0 18.6274 5.37258 24 12 24ZM16.4203 8.92244L18.7677 6.57498C19.1381 6.20454 19.0937 5.61058 18.6693 5.29819C18.2449 4.98579 17.6509 5.087 17.2815 5.45743L15.3576 7.38129C12.9744 5.95374 10.0264 5.95374 7.64318 7.38129L5.71932 5.45743C5.34889 5.087 4.75493 4.98579 4.33054 5.29819C3.90616 5.61058 3.86173 6.20454 4.23317 6.57498L6.58063 8.92244C4.98701 10.8522 4.24039 13.4418 4.56815 15.9992C4.8969 18.5655 6.2679 20.8577 8.2916 22.3376C10.3153 23.8176 12.8171 24.3445 15.1835 23.7849C17.5499 23.2253 19.5732 21.6299 20.7295 19.4031C20.9724 18.9483 20.8201 18.381 20.3654 18.1381C19.9106 17.8953 19.3433 18.0475 19.1004 18.5023C18.136 20.3017 16.4814 21.5998 14.5361 22.058C12.5909 22.5163 10.5484 22.0864 8.90467 20.8749C7.26091 19.6634 6.15729 17.7751 5.88933 15.6769C5.62137 13.5787 6.21249 11.4653 7.5 9.84936C8.43183 8.63127 9.70486 7.72135 11.1429 7.23393C12.5809 6.74651 14.1258 6.7043 15.5877 7.11256C15.8678 7.19507 16.1606 7.16491 16.4203 8.92244ZM13.6868 8.31313C13.3939 8.02024 12.9191 8.02024 12.6262 8.31313L12.0004 8.93891L11.3747 8.31313C11.0818 8.02024 10.6069 8.02024 10.314 8.31313C10.0211 8.60602 10.0211 9.08089 10.314 9.37378L11.4697 10.5295C11.7626 10.8224 12.2374 10.8224 12.5303 10.5295L13.6868 9.37303C13.9797 9.08014 13.9797 8.60602 13.6868 8.31313Z" fill="#82C341"/>
</svg>
